<?xml version="1.0" encoding="UTF-8" standalone="no"?>
<!DOCTYPE svg PUBLIC "-//W3C//DTD SVG 1.1//EN"
 "http://www.w3.org/Graphics/SVG/1.1/DTD/svg11.dtd">
<!-- Generated by graphviz version 2.26.3 (20100126.1600)
 -->
<!-- Title: PROV Pages: 1 -->
<svg width="347pt" height="128pt"
 viewBox="0.00 0.00 347.00 128.00" xmlns="http://www.w3.org/2000/svg" xmlns:xlink="http://www.w3.org/1999/xlink">
<g id="graph1" class="graph" transform="scale(1 1) rotate(0) translate(4 124)">
<title>PROV</title>
<polygon fill="white" stroke="white" points="-4,5 -4,-124 344,-124 344,5 -4,5"/>
<!-- nhttp___localhost_8080_paq_hello_greet_Alice -->
<g id="node1" class="node"><title>nhttp___localhost_8080_paq_hello_greet_Alice</title>
<a xlink:href="http://localhost:8080/paq/hello/greet/Alice" xlink:title="Alice">
<ellipse fill="#fffc87" stroke="#808080" cx="39" cy="-19" rx="34.1461" ry="18.3848"/>
<text text-anchor="middle" x="39" y="-15.4" font-family="Times Roman,serif" font-size="14.00">Alice</text>
</a>
</g>
<!-- nname -->
<g id="node2" class="node"><title>nname</title>
<a xlink:href="name" xlink:title="name">
<ellipse fill="#fffc87" stroke="#808080" cx="39" cy="-97" rx="38.8909" ry="18.3848"/>
<text text-anchor="middle" x="39" y="-93.4" font-family="Times Roman,serif" font-size="14.00">name</text>
</a>
</g>
<!-- nhttp___localhost_8080_paq_hello_greet_Alice&#45;&gt;nname -->
<g id="edge4" class="edge"><title>nhttp___localhost_8080_paq_hello_greet_Alice&#45;&gt;nname</title>
<path fill="none" stroke="black" d="M39,-37.8816C39,-46.9835 39,-58.0985 39,-68.2242"/>
<polygon fill="black" stroke="black" points="35.5001,-68.2922 39,-78.2923 42.5001,-68.2923 35.5001,-68.2922"/>
<text text-anchor="middle" x="51.9904" y="-43.1816" font-family="Times Roman,serif" font-size="8.00">der</text>
</g>
<!-- nhttp___localhost_8080_paq_hello_hello -->
<g id="node3" class="node"><title>nhttp___localhost_8080_paq_hello_hello</title>
<a xlink:href="http://localhost:8080/paq/hello/hello" xlink:title="hello">
<polygon fill="#fdb266" stroke="black" points="220.199,-104.022 177,-119.725 133.801,-104.022 133.841,-78.6152 220.159,-78.6152 220.199,-104.022"/>
<text text-anchor="middle" x="177" y="-93.4" font-family="Times Roman,serif" font-size="14.00">hello</text>
</a>
</g>
<!-- nhttp___localhost_8080_paq_hello_greet_Alice&#45;&gt;nhttp___localhost_8080_paq_hello_hello -->
<g id="edge6" class="edge"><title>nhttp___localhost_8080_paq_hello_greet_Alice&#45;&gt;nhttp___localhost_8080_paq_hello_hello</title>
<path fill="none" stroke="black" d="M62.723,-32.4087C82.6763,-43.6866 111.674,-60.0764 135.465,-73.5237"/>
<polygon fill="black" stroke="black" points="133.871,-76.643 144.299,-78.5166 137.315,-70.549 133.871,-76.643"/>
<text text-anchor="middle" x="75.6443" y="-22.5902" font-family="Times Roman,serif" font-size="8.00">att</text>
</g>
<!-- nhttp___foo_ignoreann0 -->
<g id="node4" class="node"><title>nhttp___foo_ignoreann0</title>
<polygon fill="none" stroke="gray" points="333,-37 91,-37 91,-1 339,-1 339,-31 333,-37"/>
<polyline fill="none" stroke="gray" points="333,-37 333,-31 "/>
<polyline fill="none" stroke="gray" points="339,-31 333,-31 "/>
<text text-anchor="start" x="101" y="-16.1667" font-family="Times Roman,serif" font-size="10.00">type:</text>
<text text-anchor="start" x="129" y="-16.1667" font-family="Times Roman,serif" font-size="10.00">http://www.w3.org/ns/prov#SoftwareAgent</text>
</g>
<!-- nhttp___foo_ignoreann0&#45;&gt;nhttp___localhost_8080_paq_hello_hello -->
<g id="edge2" class="edge"><title>nhttp___foo_ignoreann0&#45;&gt;nhttp___localhost_8080_paq_hello_hello</title>
<path fill="none" stroke="gray" stroke-dasharray="5,2" d="M206.187,-37.0908C200.135,-49.5119 192.127,-65.9504 186.03,-78.4656"/>
</g>
</g>
</svg>
